<svg xmlns="http://www.w3.org/2000/svg" viewBox="0 0 721 720" preserveAspectRatio="xMidYMid meet"><path fill="#e53845" d="M445 202q1.825.983 3.652 1.96C469.28 215.18 487.698 231.465 502 250l1.211 1.57c16.28 21.36 26.747 45.346 32.789 71.43l.543 2.26c10.04 43.44-.868 92.6-24.082 129.95C501.072 472.984 486.688 489.099 470 502l-1.538 1.195c-37.749 29.011-85.243 40.622-132.282 35.114-47.493-6.75-91.048-32.179-119.947-70.479-28.682-38.939-40.918-86.785-34.102-134.746 7.566-45.35 31.353-86.91 67.869-115.084l1.57-1.211C272.892 200.537 297.03 190.292 323 184l2.208-.543C364.722 174.243 409.943 182.329 445 202"/><path fill="#ffc426" d="M634 394c3.03-1.374 6.134-1.456 9.426-1.633l2.86-.197a228 228 0 0 1 9.027-.295l3.019-.053C670.769 391.8 670.769 391.8 676 394c2.246 3.008 2.147 4.64 1.826 8.352-1.077 5.097-2.711 10.004-4.512 14.885-1.614 4.44-2.487 8.956-3.375 13.59-9.96 50.456-36.421 101.579-71.65 138.772-1.56 1.696-3.06 3.44-4.566 5.186-9.176 10.527-19.218 20.574-30.295 29.094-1.603 1.258-3.166 2.56-4.729 3.867-47.194 39.202-107.878 62.359-168.71 67.992l-1.858.18c-2.131.082-2.131.082-4.288-.23-2.199-.283-3.746-.444-5.843.312-.85 3.207-.033 6.398.484 9.625q.298 3.006.57 6.016c.325 3.21.699 6.376 1.222 9.56 1.793 11.387 1.793 11.387-.39 16.709-5.47 6.063-14.476 7.239-22.25 7.667-5.15-.056-9.579-.886-13.912-3.77-10.115-10.605-6.874-36.796-6.599-50.33q.116-4.688.247-9.377c.136-5.527.087-11.031-.065-16.558-1.184-43.953-1.184-43.953 4.693-55.542 3.699-3.867 7.975-5.06 13.192-5.588 7.935-.101 16.081 1.125 22.808 5.588 3.298 4.122 2.678 8.013 2.126 13.03q-.501 3.23-1.131 6.439c-1.476 7.817-3.115 17.717-.995 25.531 3.08 2.405 5.542 2.468 9.28 2.04 5.685-1.075 11.16-2.774 16.616-4.678 4.77-1.645 9.536-2.528 14.501-3.43C440.429 624.786 461.941 616.88 482 607l2.355-1.143C502.452 597.005 519.461 585.825 535 573l1.754-1.446c13.047-10.852 25.679-22.503 36.041-35.994 1.388-1.797 2.803-3.572 4.217-5.35 26.618-33.756 57.172-86.362 55.937-131.04.021-1.9.021-1.9 1.051-5.17"/><path fill="#91bd44" d="M397.262 43.311c7.183-1.045 14.315 1.918 20.975 4.375 4.44 1.614 8.956 2.487 13.59 3.375 50.456 9.96 101.579 36.421 138.772 71.65 1.696 1.56 3.44 3.06 5.186 4.566 10.527 9.176 20.574 19.218 29.094 30.295 1.258 1.603 2.56 3.166 3.867 4.729C647.921 209.463 673.962 273.504 677 335l-.323 1.82c-.394 2.176-.394 2.176.323 5.18 3.22.685 6.41-.084 9.625-.582q3.006-.294 6.016-.56c3.21-.313 6.376-.673 9.56-1.19 11.379-1.768 11.379-1.768 16.709.44 6.056 5.483 7.238 14.478 7.667 22.26-.056 5.15-.886 9.576-3.77 13.909-10.606 10.113-36.795 6.873-50.33 6.598q-4.688-.116-9.377-.247c-5.527-.136-11.031-.087-16.558.065-43.96 1.185-43.96 1.185-55.542-4.693-3.869-3.704-5.062-7.986-5.591-13.208-.102-7.923 1.107-16.088 5.591-22.792 3.315-2.589 5.907-2.659 10.02-2.285 3.208.396 6.339.925 9.506 1.576 7.677 1.51 17.892 3.36 25.474.709 3.17-5.11 2.03-10.097.75-15.75-1.183-4.946-2.632-9.776-4.242-14.599-1.357-4.071-2.393-8.13-3.258-12.33C620.418 257.298 600.391 217.918 573 185l-1.271-1.544c-10.575-12.814-21.961-25.106-35.17-35.251-1.796-1.388-3.571-2.803-5.348-4.217-33.757-26.618-86.363-57.172-131.04-55.937-1.9-.021-1.9-.021-5.171-1.051-1.374-3.03-1.456-6.134-1.633-9.426l-.197-2.86a228 228 0 0 1-.295-9.027l-.053-3.019c-.029-16.02-.029-16.02 4.44-19.357"/><path fill="#f26731" d="M363.368-5.577c5.15.056 9.576.886 13.909 3.77 10.113 10.606 6.873 36.795 6.598 50.33q-.116 4.688-.247 9.377c-.136 5.527-.087 11.031.065 16.558 1.185 43.96 1.185 43.96-4.693 55.542-3.704 3.869-7.986 5.062-13.208 5.591-7.923.102-16.088-1.107-22.792-5.591-2.589-3.315-2.659-5.907-2.285-10.02.396-3.208.925-6.339 1.576-9.506 1.51-7.677 3.36-17.892.709-25.474-5.11-3.17-10.097-2.03-15.75-.75-4.946 1.183-9.776 2.632-14.599 4.242-4.071 1.357-8.13 2.393-12.33 3.258C258.298 100.582 218.918 120.609 186 148l-1.544 1.271c-12.814 10.575-25.106 21.961-35.251 35.17-1.388 1.796-2.803 3.571-4.217 5.348-26.618 33.757-57.172 86.363-55.937 131.04-.021 1.9-.021 1.9-1.051 5.171-3.03 1.374-6.134 1.456-9.426 1.633l-2.86.197c-3.011.166-6.012.248-9.026.295l-3.02.053C51.231 328.2 51.231 328.2 46 326c-2.246-3.008-2.147-4.64-1.826-8.352 1.077-5.097 2.711-10.004 4.512-14.885 1.614-4.44 2.487-8.956 3.375-13.59 9.96-50.456 36.421-101.579 71.65-138.772 1.56-1.696 3.06-3.44 4.566-5.186 9.176-10.527 19.218-20.574 30.295-29.094 1.603-1.258 3.166-2.56 4.729-3.867C210.463 73.079 274.504 47.038 336 44l1.82.323c2.176.394 2.176.394 5.18-.323.685-3.22-.084-6.41-.582-9.625q-.293-3.007-.56-6.016c-.313-3.21-.673-6.376-1.19-9.56C338.9 7.42 338.9 7.42 341.109 2.09c5.483-6.056 14.478-7.238 22.26-7.667"/><path fill="#32a9db" d="M50.851 337.182q3.525.093 7.049.19c5.527.136 11.031.087 16.558-.065 43.968-1.185 43.968-1.185 55.542 4.693 3.863 3.706 5.045 7.99 5.566 13.208.092 7.92-1.124 16.07-5.566 22.792-3.24 2.58-5.752 2.662-9.8 2.285-3.14-.396-6.201-.925-9.298-1.576-7.48-1.504-17.52-3.353-24.902-.709-3.49 5.78-1.6 11.9-.119 18.15 1.06 4.118 2.295 8.16 3.627 12.199 1.342 4.072 2.373 8.134 3.238 12.33C101.596 462.704 121.603 502.076 149 535l1.271 1.544c10.575 12.814 21.961 25.106 35.17 35.251 1.796 1.388 3.571 2.803 5.348 4.217 35.046 27.634 86.425 56.087 132.482 55.98L326 633c1.01 2.968.888 5.956.867 9.066l.032 2.754q.019 2.886-.007 5.773c-.017 2.963.04 5.919.104 8.882q.005 2.795-.004 5.591l.068 2.709c-.095 4.131-.095 4.131-1.06 6.225-2.733.97-5.192.486-8 0l-3.13-.364c-6.713-1.16-6.713-1.16-9.995-1.761l-1.862-.336c-11.877-2.162-23.461-5.02-35.013-8.539l-2.545-.756c-41.61-12.48-82.487-35.055-114.054-64.954-1.696-1.562-3.44-3.062-5.186-4.567-10.527-9.176-20.574-19.218-29.094-30.295-1.258-1.603-2.56-3.166-3.867-4.729C74.079 510.537 48.038 446.496 45 385l.33-1.82c.403-2.176.403-2.176-.33-5.18-3.292-.685-6.555.084-9.844.582q-3.075.293-6.152.56c-3.282.312-6.521.673-9.778 1.19-11.64 1.769-11.64 1.769-17.095-.44-5.513-4.895-6.92-12.661-7.6-19.724-.324-5.998.262-11.359 3.658-16.445 11.02-10.486 38.645-6.886 52.662-6.54"/><path fill="#eceae9" d="M340 301c4.64 1.814 8.606 4.33 12.75 7.063q1.745 1.1 3.497 2.188 3.607 2.248 7.194 4.525c4.995 3.147 10.117 6.066 15.247 8.985 2.686 1.532 5.361 3.082 8.039 4.63q5.483 3.166 10.998 6.28c2.494 1.41 4.977 2.84 7.462 4.267l2.699 1.5c6.433 3.72 12.682 8.265 15.114 15.562.586 5.973-.614 10.028-4 15-4.166 5.03-10.156 7.903-15.789 10.993-6.201 3.405-12.29 6.984-18.366 10.606-9.472 5.647-18.965 11.257-28.508 16.784q-1.697.983-3.391 1.97-2.357 1.37-4.72 2.733l-2.7 1.564c-6.521 3.485-11.924 4.242-19.151 2.788-4.975-1.583-7.636-5.862-10.437-10.01-1.42-3.674-1.224-7.218-1.213-11.125l-.015-2.657c-.014-2.899-.013-5.798-.01-8.697l-.014-6.053q-.01-6.346-.002-12.693c.006-5.413-.01-10.827-.034-16.24-.015-4.17-.016-8.338-.013-12.506q0-2.992-.015-5.986c-.013-2.796-.006-5.59.006-8.386l-.023-2.484c.056-6.177 1.346-10.674 4.946-15.816C325.416 300.05 332.2 299.54 340 301"/><path fill="#fdc726" d="M350.174 583.652c7.42-2.6 14.861-2.283 21.962 1.101 5.584 3.619 7.358 7.785 8.816 14.149 2.846 16.089 2.124 32.741 1.676 48.998-.136 5.527-.087 11.031.065 16.558 1.296 48.111 1.296 48.111-6.397 57.657-5.562 4.824-11.587 6.158-18.817 5.93-6.349-.767-11.416-3.004-15.479-8.045-7.977-16.773-5.124-39.88-4.628-57.9.136-5.527.087-11.031-.065-16.558-1.483-55.05-1.483-55.05 12.867-61.89"/><path fill="#e13545" d="m248 220 1 2-2 2-1.312 1.938C244 228 244 228 241.71 229.32c-3.008 1.864-5.34 4.086-7.774 6.618l-1.275 1.302a264 264 0 0 0-5.846 6.139L225 245l-2-1c5.824-6.485 11.659-12.895 18.125-18.75l1.396-1.265c1.768-1.574 3.352-2.921 5.479-3.985"/><path fill="#e53344" d="M222 245c.672 1.746.672 1.746 1 4-1.11 2.035-1.11 2.035-2.75 4.063l-1.61 2.035L217 257l-1.578 1.871L214 260l-2-2c.69-1.42.69-1.42 1.992-3.04l1.387-1.757 1.496-1.828 1.473-1.852A464 464 0 0 1 222 245"/><path fill="#ca2e38" d="M481 228c4.526 3.678 8.394 7.41 12 12-3.506-.58-5.208-1.801-7.687-4.312l-1.825-1.801c-1.574-1.996-2.077-3.404-2.488-5.887"/><path fill="#ce323d" d="M258 212c1.273 1.27 1.273 1.27 2 3-1.512 2.227-3.689 3.66-6 5-2.875.313-2.875.313-5 0 6.374-6.551 6.374-6.551 9-8"/><path fill="#cd313c" d="M522 431h2c-1.54 5.015-3.03 9.615-6 14l-2-3 3-1c.292-1.753.576-3.51.758-5.277.285-2.03.784-3.265 2.242-4.723"/><path fill="#ecdede" d="m323 303 2 1c-.875 2.714-1.582 3.779-4.125 5.125L319 310v2h-2l-1 3c.287-4.733 2.578-7.279 5.527-10.742z"/><path fill="#c1313b" d="M506 257c3.848 3.42 6.606 7.468 9 12v2h-2v-3h-2c-1.29-1.39-1.29-1.39-2.625-3.25l-1.352-1.828c-1.153-2.166-1.226-3.505-1.023-5.922"/><path fill="#cd303e" d="M229 480c4.56 3.613 8.017 6.988 11 12-3.13-1.392-5.323-3.026-7.75-5.437l-1.86-1.81C229 483 229 483 229 480"/><path fill="#cc2f38" d="m491 479 2 2a55 55 0 0 1-4.875 5.125l-1.473 1.418A415 415 0 0 1 483 491c0-3.759.95-4.413 3.438-7.125l1.933-2.133c.865-.925 1.734-1.847 2.629-2.742"/><path fill="#ebbdc0" d="M421 353c2.267 2.409 2.345 4.866 2.27 8.082-.462 3.284-1.817 5.952-3.27 8.918-1.05-1.281-1.05-1.281-2-3 .207-1.719.207-1.719.813-3.5l.582-1.781L420 360c.89-2.672 1.094-4.262 1-7"/><path fill="#cc2f38" d="M234 232c0 4.7-2.893 7.63-6 11-2.875 1.5-2.875 1.5-5 2 3.388-4.692 6.782-9.03 11-13"/><path fill="#b32a34" d="M429 195c9.595 2.89 9.595 2.89 13 6-4.993-.36-8.921-.813-13-4z"/><path fill="#bb2b35" d="M528 418c1.23 3.69.594 4.678-.875 8.188l-1.117 2.73L525 431h-1c-.374-5.143-.374-5.143 0-7l3-1c.737-2.52.737-2.52 1-5"/><path fill="#f33946" d="M335 182c2.622-.085 4.97 0 7.563.25l2.154.16c1.766.146 3.526.362 5.283.59v1c-1.469.205-1.469.205-3.5.316l-2.187.127-2.313.12-2.312.13q-2.844.16-5.688.307z"/><path fill="#d43641" d="m248 220 1 2-2 2-2 2.25-2 1.75-2-2c1.336-1.508 1.336-1.508 3.375-3.125l2.023-1.633z"/><path fill="#bc2b39" d="M418 191c3.95.551 7.35 1.39 11 3-1.125 1.125-1.125 1.125-3 2-3.187-.75-3.187-.75-6-2v-2z"/><path fill="#b62932" d="m515 273 3 1c1.188 3.063 1.188 3.063 2 6h-3c-1.68-2.565-2-3.885-2-7"/><path fill="#ae2934" d="M314.75 530.188 317 531v3l-9-2c4-2 4-2 6.75-1.812"/><path fill="#c42e37" d="m450 205 9 5c-4 1-4 1-6.75-.25L450 208z"/><path fill="#e64450" d="M317 410c4.875 4.75 4.875 4.75 6 7-2.867-.573-3.861-.861-6-3-.125-2.125-.125-2.125 0-4"/><path fill="#cb303c" d="m530 407 2 1c-.034 2.393-.57 4.638-1 7l-2-2c.375-3.125.375-3.125 1-6"/><path fill="#a62831" d="m519 437 2 1c-.75 3-.75 3-2 6l-2 1-1-3 3-1c.25-2.042.25-2.042 0-4"/><path fill="#d43342" d="M222 245c.688 1.813.688 1.813 1 4-1.312 1.875-1.312 1.875-3 3l-2-2c1.875-2.625 1.875-2.625 4-5"/><path fill="#cf2c3a" d="m501 250 5 5-3 1c-2-2-2-2-2.125-4.125z"/><path fill="#d43440" d="M241 493c3.692.615 3.692.615 5.25 2.563L247 497h-3c-1.687-2-1.687-2-3-4"/><path fill="#e64450" d="M422 363c1.125 1.813 1.125 1.813 2 4-.75 1.75-.75 1.75-2 3h-2z"/><path fill="#d02d36" d="M488 235c1.191.996 1.191.996 2.563 2.438l1.378 1.433L493 240c-2.419-.403-3.669-.622-5.312-2.5L487 236z"/><path fill="#c72e37" d="m508 456 3 1-4 5c.313-3.062.313-3.062 1-6"/><path fill="#a8242d" d="M198 436h3c.188 3 .188 3 0 6-3-3.75-3-3.75-3-6"/><path fill="#e75d67" d="m345 416-1 3c-3.062.188-3.062.188-6 0 4.4-3 4.4-3 7-3"/><path fill="#c52e39" d="M444 515h3v2c-2.5 1.125-2.5 1.125-5 2 .813-2 .813-2 2-4"/><path fill="#d3333f" d="M223 473a91 91 0 0 1 4 4h-3c-1.25-1.437-1.25-1.437-2-3z"/><path fill="#e64a56" d="M416 344a91 91 0 0 1 4 4h-3c-1.25-1.437-1.25-1.437-2-3z"/><path fill="#e64d58" d="M341 300c2.063.75 2.063.75 4 2v2c-2.562-.875-2.562-.875-5-2z"/><path fill="#bf2d37" d="m266 208-1 3c-2.562.688-2.562.688-5 1 3.75-4 3.75-4 6-4"/><path fill="#c42f39" d="m461 212 5 4c-2.5-.312-2.5-.312-5-1z"/><path fill="#b92c38" d="m274 202 3 1-2 2c-2.125-.375-2.125-.375-4-1 1.313-1.062 1.313-1.062 3-2"/><path fill="#c22b35" d="M294 525c2 .375 2 .375 4 1v2c-2-.375-2-.375-4-1z"/><path fill="#be333e" d="M525 294h2c.625 2 .625 2 1 4l-3-1z"/><path fill="#be2f39" d="m515 273 3 1-1 3-2-1z"/><path fill="#c42c34" d="M432 521c2.063.813 2.063.813 4 2l-5 1z"/><path fill="#c92e39" d="m256 504 3 1-1 3z"/><path fill="#c52d39" d="M214 256c1.125 1.438 1.125 1.438 2 3l-2 1-2-2z"/><path fill="#d33943" d="m498 246 3 4h-3c-.187-2-.187-2 0-4"/><path fill="#c73641" d="m258 212 2 3-3 1z"/><path fill="#d0323e" d="M522 431h2l-2 4-1-3z"/><path fill="#ece0e0" d="M419 366h2l-2 4-1-3z"/><path fill="#ece1e0" d="m396 335 4 2-3 1z"/><path fill="#ece4e3" d="m360 314 4 2-3 1z"/></svg>